# xmcd
# Copyright (C) 1995-1998 Ti Kan
#
# Track frame offsets:
#       150
#       12659
#       24341
#       38879
#       58939
#       73428
#       85391
#       103436
#       119750
#       136991
#       149697
#       190417
#
# Disc length: 2842 seconds
#
# Revision: 0
# Processed by: cddbd v1.5.2PL0 Copyright (c) Steve Scherf et al.
# Submitted via: CD-Import v1.0
#
DISCID=c60b180c
DTITLE=The Hoosiers - The Trick Of Life
DYEAR=1900
DGENRE=
TTITLE0=Worried About Ray
TTITLE1=Worst Case Scenario
TTITLE2=Run Rabbit Run
TTITLE3=Goodbye Mr A
TTITLE4=Sadness Runs Through Him
TTITLE5=Clinging On For Life
TTITLE6=Cops And Robbers
TTITLE7=Everything Goes Dark
TTITLE8=Killer
TTITLE9=Trick To Life
TTITLE10=Money To Be Made
TTITLE11=Data Track
EXTD=
EXTT0=
EXTT1=
EXTT2=
EXTT3=
EXTT4=
EXTT5=
EXTT6=
EXTT7=
EXTT8=
EXTT9=
EXTT10=
EXTT11=
PLAYORDER=
